<svg width="71" height="70" viewBox="0 0 71 70" fill="none" xmlns="http://www.w3.org/2000/svg">
<path d="M22.2532 48.9453L25.8762 44.3652L14.1184 35L25.8762 25.6348L22.2532 21.0547L7.62427 32.7441C7.30526 33.0176 7.04321 33.348 6.83813 33.7354C6.63306 34.1227 6.53052 34.5443 6.53052 35C6.53052 35.4557 6.63306 35.8773 6.83813 36.2646C7.04321 36.652 7.30526 36.9824 7.62427 37.2559L22.2532 48.9453ZM49.1868 21.0547L45.5637 25.6348L57.3215 35L45.5637 44.3652L49.1868 48.9453L63.8157 37.2559C64.1347 36.9824 64.3967 36.652 64.6018 36.2646C64.8069 35.8773 64.9094 35.4557 64.9094 35C64.9094 34.5443 64.8069 34.1227 64.6018 33.7354C64.3967 33.348 64.1347 33.0176 63.8157 32.7441L49.1868 21.0547ZM44.4016 9.36523L32.7122 61.8652L27.0383 60.6348L38.7278 8.13477L44.4016 9.36523Z" fill="#00EEFF"/>
</svg>
