<svg width="71" height="70" viewBox="0 0 71 70" fill="none" xmlns="http://www.w3.org/2000/svg">
<path d="M62.5034 8.47654C60.7716 6.79034 58.6183 5.94724 56.0435 5.94724C53.4686 5.94724 51.3153 6.79034 49.5835 8.47654L25.1792 32.9492C24.9058 33.2226 24.6893 33.5302 24.5298 33.872C24.3703 34.2138 24.2905 34.5898 24.2905 35C24.2905 35.4101 24.3703 35.7861 24.5298 36.1279C24.6893 36.4697 24.9058 36.7773 25.1792 37.0508L33.9292 45.8008C34.2026 46.0742 34.5103 46.2907 34.8521 46.4502C35.1938 46.6097 35.5698 46.6894 35.98 46.6894C36.3901 46.6894 36.7661 46.6097 37.1079 46.4502C37.4497 46.2907 37.7573 46.0742 38.0308 45.8008L62.5034 21.3965C63.3237 20.5761 63.9731 19.6077 64.4517 18.4912C64.9302 17.3746 65.1694 16.2011 65.1694 14.9707C65.1694 13.6946 64.9302 12.4983 64.4517 11.3818C63.9731 10.2653 63.3237 9.29685 62.5034 8.47654ZM58.3335 17.2265L35.98 39.6484L31.3315 35L53.7534 12.6465C54.0269 12.3274 54.3687 12.0882 54.7788 11.9287C55.189 11.7692 55.5991 11.6894 56.0093 11.6894C56.465 11.6894 56.8979 11.7692 57.3081 11.9287C57.7183 12.0882 58.0601 12.3274 58.3335 12.6465C58.6525 12.9199 58.8918 13.2617 59.0513 13.6718C59.2108 14.082 59.2905 14.5149 59.2905 14.9707C59.2905 15.3808 59.2108 15.791 59.0513 16.2011C58.8918 16.6113 58.6525 16.9531 58.3335 17.2265ZM24.2905 43.75C22.4676 42.8385 20.3143 42.8499 17.8306 43.7842C15.3468 44.7184 14.105 46.6439 14.105 49.5605C14.105 51.3379 14.105 52.8759 14.105 54.1748C14.105 55.4736 12.6466 56.8522 9.72998 58.3105C9.72998 58.3105 10.2541 58.6295 11.3022 59.2675C12.3504 59.86 13.672 60.3613 15.2671 60.7715C16.8621 61.1816 18.6167 61.2955 20.5308 61.1133C22.3993 60.8854 24.1538 59.9511 25.7944 58.3105C27.6173 56.4876 28.5516 53.9697 28.5972 50.7568C28.6427 47.5439 27.2072 45.2083 24.2905 43.75Z" fill="#00EEFF"/>
</svg>
